<?xml version="1.0" encoding="iso-8859-1"?>
<!-- Generator: Adobe Illustrator 19.0.0, SVG Export Plug-In . SVG Version: 6.00 Build 0)  -->
<svg version="1.1" id="Capa_1" xmlns="http://www.w3.org/2000/svg" xmlns:xlink="http://www.w3.org/1999/xlink" x="0px" y="0px"
	 viewBox="0 0 773 249" style="enable-background:new 0 0 773 249;" xml:space="preserve">
<g>
	<g>
		<path style="fill:#646363;" d="M286.417,122.236v-13.642h32.385c4.953,0,8.817-1.404,11.59-4.214
			c2.772-2.809,4.159-6.505,4.159-11.091c0-4.658-1.386-8.354-4.159-11.091c-2.773-2.734-6.637-4.104-11.59-4.104h-42.7v66.544
			h-13.974v-80.63h56.674c4.658,0,8.817,0.685,12.477,2.052c3.66,1.369,6.746,3.291,9.261,5.767c2.513,2.479,4.436,5.49,5.767,9.039
			c1.331,3.549,1.996,7.542,1.996,11.978c0,4.364-0.665,8.337-1.996,11.923c-1.331,3.587-3.254,6.673-5.767,9.261
			c-2.515,2.589-5.601,4.603-9.261,6.044c-3.66,1.442-7.819,2.163-12.477,2.163H286.417z"/>
		<path style="fill:#646363;" d="M358.285,144.639v-80.63h14.085v66.544h54.234v14.085H358.285z"/>
		<path style="fill:#646363;" d="M436.694,144.639v-80.63h71.979v14.085h-58.004v52.459h58.115v14.085H436.694z M460.983,109.592
			V97.725h44.695v11.867H460.983z"/>
		<path style="fill:#646363;" d="M601.945,144.639L568.118,111.7l-33.494,32.939h-18.299l43.254-41.923L519.43,64.009h19.409
			l30.722,29.834l30.277-29.834h18.3l-40.148,38.707l43.697,41.923H601.945z"/>
		<path style="fill:#646363;" d="M657.845,144.639c-5.62,0-10.813-1.054-15.583-3.161c-4.769-2.107-8.91-4.991-12.421-8.651
			c-3.513-3.66-6.249-8.003-8.207-13.032c-1.96-5.027-2.939-10.462-2.939-16.303c0-5.915,0.979-11.313,2.939-16.193
			c1.958-4.88,4.694-9.039,8.207-12.477c3.511-3.438,7.652-6.1,12.421-7.985c4.77-1.885,9.963-2.828,15.583-2.828h19.631
			c5.84,0,11.183,0.962,16.025,2.884c4.842,1.923,9.001,4.622,12.478,8.096c3.475,3.476,6.173,7.635,8.097,12.477
			c1.921,4.844,2.883,10.186,2.883,16.026c0,5.841-0.98,11.276-2.938,16.303c-1.96,5.029-4.696,9.372-8.207,13.032
			c-3.513,3.66-7.672,6.543-12.477,8.651c-4.807,2.107-10.093,3.161-15.859,3.161H657.845z M677.476,130.554
			c3.696,0,7.098-0.665,10.203-1.996s5.784-3.161,8.041-5.49c2.254-2.329,4.01-5.119,5.268-8.374
			c1.257-3.253,1.886-6.766,1.886-10.537c0-3.771-0.629-7.264-1.886-10.48c-1.258-3.216-3.014-5.97-5.268-8.263
			c-2.257-2.291-4.936-4.084-8.041-5.379c-3.105-1.293-6.507-1.941-10.203-1.941h-19.631c-3.624,0-6.97,0.648-10.037,1.941
			c-3.069,1.294-5.712,3.088-7.93,5.379c-2.219,2.292-3.957,5.029-5.213,8.207c-1.258,3.18-1.886,6.693-1.886,10.536
			c0,3.771,0.628,7.284,1.886,10.537c1.256,3.254,2.994,6.044,5.213,8.374c2.218,2.329,4.86,4.159,7.93,5.49
			c3.067,1.331,6.413,1.996,10.037,1.996H677.476z"/>
	</g>
	<g>
		<g>
			<path style="fill:#646363;" d="M261.858,188.723v-3.459h14.844c0.926,0,1.639-0.235,2.138-0.708
				c0.499-0.472,0.749-1.099,0.749-1.88c0-0.853-0.25-1.493-0.749-1.92c-0.5-0.426-1.212-0.64-2.138-0.64h-9.097
				c-0.926,0-1.766-0.141-2.52-0.422c-0.754-0.282-1.389-0.672-1.907-1.172c-0.517-0.499-0.917-1.094-1.198-1.784
				c-0.282-0.689-0.422-1.443-0.422-2.26c0-0.799,0.131-1.539,0.395-2.22c0.263-0.682,0.654-1.267,1.171-1.757
				s1.158-0.876,1.92-1.158c0.763-0.281,1.634-0.422,2.615-0.422h14.217v3.459h-14.217c-0.799,0-1.416,0.214-1.852,0.64
				c-0.436,0.428-0.654,1.021-0.654,1.784s0.222,1.354,0.667,1.771c0.445,0.418,1.049,0.627,1.811,0.627h9.07
				c2.016,0,3.545,0.472,4.589,1.416c1.044,0.944,1.566,2.379,1.566,4.303c0,0.836-0.127,1.607-0.381,2.315
				s-0.636,1.321-1.144,1.839c-0.509,0.518-1.149,0.922-1.92,1.212c-0.772,0.29-1.675,0.436-2.71,0.436H261.858z"/>
			<path style="fill:#646363;" d="M292.172,188.723v-16.342h-7.517v-3.459h18.493v3.459h-7.517v16.342H292.172z"/>
			<path style="fill:#646363;" d="M323.819,188.723l-5.011-5.502H311.4v-3.05h8.252c1.253,0,2.197-0.341,2.833-1.021
				c0.635-0.682,0.954-1.666,0.954-2.955s-0.332-2.247-0.994-2.874c-0.663-0.626-1.594-0.939-2.792-0.939h-10.786v16.342h-3.432
				v-19.801h14.217c1.125,0,2.133,0.168,3.023,0.504c0.889,0.336,1.643,0.817,2.26,1.443c0.617,0.627,1.09,1.385,1.417,2.274
				s0.49,1.889,0.49,2.996c0,1.652-0.359,3.037-1.076,4.153c-0.718,1.117-1.721,1.92-3.01,2.41l5.965,6.02H323.819z"/>
			<path style="fill:#646363;" d="M347.57,168.922h3.377v11.058c0,1.525-0.2,2.855-0.6,3.99s-1.026,2.075-1.879,2.819
				c-0.854,0.744-1.957,1.298-3.31,1.661s-2.992,0.545-4.916,0.545c-1.906,0-3.536-0.182-4.889-0.545
				c-1.353-0.363-2.456-0.917-3.31-1.661s-1.48-1.685-1.879-2.819c-0.4-1.135-0.599-2.465-0.599-3.99v-11.058h3.568v11.058
				c0,0.999,0.123,1.853,0.368,2.561s0.644,1.289,1.198,1.743c0.554,0.454,1.294,0.785,2.22,0.994
				c0.926,0.209,2.07,0.313,3.432,0.313s2.506-0.104,3.432-0.313c0.926-0.209,1.666-0.54,2.22-0.994
				c0.554-0.454,0.953-1.035,1.198-1.743s0.368-1.562,0.368-2.561V168.922z"/>
			<path style="fill:#646363;" d="M363.121,188.723c-1.38,0-2.656-0.259-3.827-0.776c-1.171-0.518-2.188-1.226-3.05-2.124
				c-0.863-0.899-1.535-1.966-2.016-3.2c-0.481-1.235-0.722-2.569-0.722-4.004c0-1.452,0.24-2.778,0.722-3.977
				c0.481-1.198,1.153-2.22,2.016-3.064c0.862-0.844,1.879-1.498,3.05-1.961c1.171-0.463,2.447-0.694,3.827-0.694h10.731v3.459
				h-10.731c-0.89,0-1.711,0.159-2.465,0.477c-0.754,0.318-1.403,0.759-1.947,1.321c-0.545,0.563-0.972,1.234-1.28,2.016
				c-0.309,0.78-0.463,1.644-0.463,2.587c0,0.926,0.154,1.789,0.463,2.588c0.309,0.799,0.735,1.484,1.28,2.056
				c0.544,0.572,1.193,1.021,1.947,1.349c0.753,0.327,1.575,0.49,2.465,0.49h10.731v3.459H363.121z"/>
			<path style="fill:#646363;" d="M383.004,188.723v-16.342h-7.517v-3.459h18.494v3.459h-7.518v16.342H383.004z"/>
			<path style="fill:#646363;" d="M413.971,168.922h3.378v11.058c0,1.525-0.2,2.855-0.6,3.99s-1.025,2.075-1.879,2.819
				s-1.957,1.298-3.31,1.661s-2.991,0.545-4.916,0.545c-1.906,0-3.536-0.182-4.889-0.545s-2.456-0.917-3.31-1.661
				s-1.479-1.685-1.879-2.819s-0.6-2.465-0.6-3.99v-11.058h3.568v11.058c0,0.999,0.122,1.853,0.367,2.561s0.645,1.289,1.199,1.743
				c0.553,0.454,1.293,0.785,2.22,0.994c0.926,0.209,2.069,0.313,3.432,0.313c1.361,0,2.506-0.104,3.432-0.313
				s1.665-0.54,2.22-0.994c0.554-0.454,0.953-1.035,1.198-1.743s0.367-1.562,0.367-2.561V168.922z"/>
			<path style="fill:#646363;" d="M438.864,188.723l-5.012-5.502h-7.408v-3.05h8.253c1.253,0,2.196-0.341,2.832-1.021
				c0.636-0.682,0.953-1.666,0.953-2.955s-0.331-2.247-0.994-2.874c-0.663-0.626-1.593-0.939-2.791-0.939h-10.786v16.342h-3.432
				v-19.801h14.218c1.125,0,2.133,0.168,3.022,0.504s1.644,0.817,2.261,1.443c0.617,0.627,1.09,1.385,1.416,2.274
				c0.327,0.89,0.49,1.889,0.49,2.996c0,1.652-0.358,3.037-1.075,4.153c-0.718,1.117-1.721,1.92-3.01,2.41l5.965,6.02H438.864z"/>
			<path style="fill:#646363;" d="M466.21,188.723l-2.969-4.984h-9.37l1.635-2.805h6.073l-4.412-7.409l-8.988,15.198h-3.949
				l11.385-18.956c0.2-0.345,0.437-0.617,0.709-0.817c0.271-0.199,0.599-0.3,0.98-0.3c0.381,0,0.703,0.101,0.967,0.3
				c0.263,0.2,0.494,0.473,0.694,0.817l11.412,18.956H466.21z"/>
			<path style="fill:#646363;" d="M472.501,188.723v-19.801h3.459v16.342h13.318v3.459H472.501z"/>
			<path style="fill:#646363;" d="M499.764,188.723v-19.801h17.677v3.459h-14.245v12.883h14.272v3.459H499.764z M505.728,180.116
				v-2.914h10.977v2.914H505.728z"/>
			<path style="fill:#646363;" d="M523.649,174.233v14.489h-3.296v-17.976c0-0.636,0.159-1.14,0.477-1.512
				c0.318-0.372,0.749-0.559,1.294-0.559c0.254,0,0.499,0.055,0.735,0.163c0.236,0.109,0.481,0.291,0.735,0.545l13.973,13.863
				v-14.489h3.295v18.139c0,0.654-0.159,1.162-0.477,1.525s-0.73,0.545-1.239,0.545c-0.563,0-1.089-0.245-1.579-0.735
				L523.649,174.233z"/>
			<path style="fill:#646363;" d="M553.254,188.723c-1.38,0-2.655-0.259-3.826-0.776s-2.188-1.226-3.051-2.124
				c-0.862-0.899-1.534-1.966-2.016-3.2c-0.48-1.235-0.722-2.569-0.722-4.004c0-1.452,0.241-2.778,0.722-3.977
				c0.481-1.198,1.153-2.22,2.016-3.064c0.862-0.844,1.88-1.498,3.051-1.961s2.446-0.694,3.826-0.694h10.731v3.459h-10.731
				c-0.89,0-1.711,0.159-2.465,0.477c-0.753,0.318-1.402,0.759-1.947,1.321c-0.544,0.563-0.972,1.234-1.279,2.016
				c-0.31,0.78-0.464,1.644-0.464,2.587c0,0.926,0.154,1.789,0.464,2.588c0.308,0.799,0.735,1.484,1.279,2.056
				c0.545,0.572,1.194,1.021,1.947,1.349c0.754,0.327,1.575,0.49,2.465,0.49h8.471v-5.147h-8.934v-2.914h12.42v11.521H553.254z"/>
			<path style="fill:#646363;" d="M568.588,188.723v-19.801h3.459v19.801H568.588z"/>
			<path style="fill:#646363;" d="M578.884,174.233v14.489h-3.296v-17.976c0-0.636,0.159-1.14,0.477-1.512
				c0.318-0.372,0.749-0.559,1.294-0.559c0.254,0,0.499,0.055,0.735,0.163c0.236,0.109,0.481,0.291,0.735,0.545l13.973,13.863
				v-14.489h3.295v18.139c0,0.654-0.159,1.162-0.477,1.525c-0.317,0.363-0.73,0.545-1.239,0.545c-0.563,0-1.089-0.245-1.579-0.735
				L578.884,174.233z"/>
			<path style="fill:#646363;" d="M599.446,188.723v-19.801h17.677v3.459h-14.245v12.883h14.271v3.459H599.446z M605.411,180.116
				v-2.914h10.977v2.914H605.411z"/>
			<path style="fill:#646363;" d="M620.118,188.723v-19.801h17.677v3.459H623.55v12.883h14.271v3.459H620.118z M626.083,180.116
				v-2.914h10.977v2.914H626.083z"/>
			<path style="fill:#646363;" d="M659.175,188.723l-5.012-5.502h-7.408v-3.05h8.253c1.253,0,2.196-0.341,2.832-1.021
				c0.636-0.682,0.953-1.666,0.953-2.955s-0.331-2.247-0.994-2.874c-0.663-0.626-1.593-0.939-2.791-0.939h-10.786v16.342h-3.432
				v-19.801h14.218c1.125,0,2.133,0.168,3.022,0.504s1.644,0.817,2.261,1.443c0.617,0.627,1.09,1.385,1.416,2.274
				c0.327,0.89,0.49,1.889,0.49,2.996c0,1.652-0.358,3.037-1.075,4.153c-0.718,1.117-1.721,1.92-3.01,2.41l5.965,6.02H659.175z"/>
			<path style="fill:#646363;" d="M666.064,188.723v-19.801h3.459v19.801H666.064z"/>
			<path style="fill:#646363;" d="M676.36,174.233v14.489h-3.296v-17.976c0-0.636,0.159-1.14,0.477-1.512
				c0.318-0.372,0.749-0.559,1.294-0.559c0.254,0,0.499,0.055,0.735,0.163c0.236,0.109,0.481,0.291,0.735,0.545l13.973,13.863
				v-14.489h3.295v18.139c0,0.654-0.159,1.162-0.477,1.525s-0.73,0.545-1.239,0.545c-0.563,0-1.089-0.245-1.579-0.735
				L676.36,174.233z"/>
			<path style="fill:#646363;" d="M705.965,188.723c-1.38,0-2.655-0.259-3.826-0.776s-2.188-1.226-3.051-2.124
				c-0.862-0.899-1.534-1.966-2.016-3.2c-0.48-1.235-0.722-2.569-0.722-4.004c0-1.452,0.241-2.778,0.722-3.977
				c0.481-1.198,1.153-2.22,2.016-3.064c0.862-0.844,1.88-1.498,3.051-1.961s2.446-0.694,3.826-0.694h10.731v3.459h-10.731
				c-0.89,0-1.711,0.159-2.465,0.477c-0.753,0.318-1.402,0.759-1.947,1.321c-0.544,0.563-0.972,1.234-1.279,2.016
				c-0.31,0.78-0.464,1.644-0.464,2.587c0,0.926,0.154,1.789,0.464,2.588c0.308,0.799,0.735,1.484,1.279,2.056
				c0.545,0.572,1.194,1.021,1.947,1.349c0.754,0.327,1.575,0.49,2.465,0.49h8.471v-5.147h-8.934v-2.914h12.42v11.521H705.965z"/>
		</g>
	</g>
	
		<line style="fill:none;stroke:#1564AE;stroke-width:2.9805;stroke-miterlimit:10;" x1="436.75" y1="157.843" x2="717.5" y2="157.843"/>
</g>
<g>
	<path style="fill:#1564AE;" d="M134.519,35.373c-51.675,0-93.563,40.662-93.563,90.813c0,50.15,41.888,90.823,93.563,90.823
		c51.679,0,93.566-40.672,93.566-90.823C228.085,76.035,186.198,35.373,134.519,35.373z"/>
	<g>
		<path style="fill:#FFFFFF;" d="M229.574,130.949c0,0-0.153,11.426-0.722,14.878l-101.428-78.66c0,0-20.092-17.077-20.751-8.914
			L90.148,214.633l-1.081-0.512l15.381-159.942c0,0,0.771-9.371,14.559,0.889C132.536,65.121,229.574,130.949,229.574,130.949z"/>
		<path style="fill:#FFFFFF;" d="M227.583,156.356c-0.211,0-0.421-0.09-0.574-0.261l-31.891-36.385
			c-0.275-0.314-0.247-0.788,0.076-1.058c0.308-0.288,0.79-0.251,1.067,0.072l31.896,36.367c0.269,0.323,0.234,0.798-0.072,1.077
			C227.933,156.293,227.757,156.356,227.583,156.356z"/>
		<path style="fill:#FFFFFF;" d="M216.695,178.31c-0.238,0-0.461-0.107-0.618-0.321l-65.989-93.2
			c-0.243-0.341-0.163-0.808,0.178-1.049c0.346-0.251,0.816-0.161,1.059,0.18l65.993,93.18c0.243,0.349,0.161,0.826-0.178,1.067
			C217.001,178.256,216.848,178.31,216.695,178.31z"/>
		<path style="fill:#FFFFFF;" d="M195.688,203.745c-0.283,0-0.561-0.163-0.687-0.449L136.783,74.691
			c-0.17-0.377,0-0.826,0.387-1.004c0.375-0.171,0.829,0,0.999,0.384l58.213,128.597c0.175,0.386,0.004,0.835-0.376,1.004
			C195.898,203.727,195.796,203.745,195.688,203.745z"/>
		<path style="fill:#FFFFFF;" d="M170.258,219.627c-0.337,0-0.637-0.216-0.731-0.547L126.026,65.579
			c-0.108-0.404,0.129-0.816,0.529-0.933c0.4-0.126,0.821,0.116,0.937,0.519l43.493,153.503c0.116,0.394-0.118,0.816-0.526,0.924
			C170.396,219.619,170.321,219.627,170.258,219.627z"/>
		<polygon style="fill:#FFFFFF;" points="40.433,149.047 39.397,147.944 126.389,66.215 127.442,67.328 		"/>
	</g>
</g>
</svg>
